<svg xmlns="http://www.w3.org/2000/svg" version="1.1" xmlns:xlink="http://www.w3.org/1999/xlink" xmlns:svgjs="http://svgjs.com/svgjs" width="1280" height="999" preserveAspectRatio="none" viewBox="0 0 1280 999"><g mask="url(&quot;#SvgjsMask1015&quot;)" fill="none"><path d="M326.99 1105.17C539.53 990.38 553.43 288.49 827.19 278.47 1100.94 268.45 1171.76 637.42 1327.38 658.09" stroke="rgba(194, 51, 51, 1)" stroke-width="2"></path><path d="M369 1197.15C532.07 1173.95 548.81 851.56 887.73 790.92 1226.65 730.28 1230.55 329.72 1406.46 291.42" stroke="rgba(194, 51, 51, 1)" stroke-width="2"></path><path d="M424.36 1163.38C510.04 1162.12 470.15 1077.76 750.82 1059.01 1031.49 1040.26 1206.68 630.49 1403.74 609.46" stroke="rgba(194, 51, 51, 1)" stroke-width="2"></path><path d="M630.47 1193.75C780.14 1121.31 731.26 712.93 993.68 636.57 1256.09 560.21 1246 389.73 1356.88 376.83" stroke="rgba(194, 51, 51, 1)" stroke-width="2"></path><path d="M374.22 1082.48C526.66 960.39 444.41 373.27 695.48 370.38 946.55 367.49 1145.74 780.77 1338.01 799.95" stroke="rgba(194, 51, 51, 1)" stroke-width="2"></path></g><defs><mask id="SvgjsMask1015"><rect width="1280" height="999" fill="#ffffff"></rect></mask></defs></svg>